<?xml version="1.0" standalone="no"?>
<!DOCTYPE svg PUBLIC "-//W3C//DTD SVG 1.1//EN" "http://www.w3.org/Graphics/SVG/1.1/DTD/svg11.dtd" >
<!--
2013-9-30: Created.
-->
<svg>
<metadata>
Created by iconfont
</metadata>
<defs>

<font id="iconfont" horiz-adv-x="1024" >
  <font-face
    font-family="iconfont"
    font-weight="500"
    font-stretch="normal"
    units-per-em="1024"
    ascent="896"
    descent="-128"
  />
    <missing-glyph />
    
    <glyph glyph-name="ai-module" unicode="&#58884;" d="M384 416h-288c-51.2 0-96 44.8-96 96v288c0 51.2 44.8 96 96 96h288c51.2 0 96-44.8 96-96v-288c0-51.2-44.8-96-96-96zM384-128h-288c-51.2 0-96 44.8-96 96v288c0 51.2 44.8 96 96 96h288c51.2 0 96-44.8 96-96v-281.6c0-57.6-44.8-102.4-96-102.4zM787.2-128v0c-134.4 0-243.2 108.8-243.2 236.8v0c0 134.4 108.8 236.8 236.8 236.8v0c134.4 0 236.8-108.8 236.8-236.8v0c6.4-128-102.4-236.8-230.4-236.8zM928 416h-288c-51.2 0-96 44.8-96 96v288c0 51.2 44.8 96 96 96h281.6c57.6 0 102.4-44.8 102.4-96v-288c0-51.2-44.8-96-96-96z"  horiz-adv-x="1024" />

    
    <glyph glyph-name="mokuai" unicode="&#59026;" d="M345.6-36.3H200.2C141-36.3 92.9 11.8 92.9 71V216.3c0 59.2 48.1 107.3 107.3 107.3h145.3c59.2 0 107.3-48.1 107.3-107.3V71c0.1-59.2-48.1-107.3-107.2-107.3zM200.2 274.1c-31.9 0-57.8-25.9-57.8-57.8V71c0-31.9 25.9-57.8 57.8-57.8h145.3c31.9 0 57.8 25.9 57.8 57.8V216.3c0 31.9-25.9 57.8-57.8 57.8H200.2zM795.7-36.3H650.3C591.2-36.3 543 11.8 543 71V216.3c0 59.2 48.1 107.3 107.3 107.3h145.3c59.2 0 107.3-48.1 107.3-107.3V71c0.1-59.2-48.1-107.3-107.2-107.3zM650.3 274.1c-31.9 0-57.8-25.9-57.8-57.8V71c0-31.9 25.9-57.8 57.8-57.8h145.3c31.9 0 57.8 25.9 57.8 57.8V216.3c0 31.9-25.9 57.8-57.8 57.8H650.3zM345.6 413.8H200.2c-59.2 0-107.3 48.1-107.3 107.3V666.4c0 59.2 48.1 107.3 107.3 107.3h145.3c59.2 0 107.3-48.1 107.3-107.3v-145.3c0.1-59.2-48.1-107.3-107.2-107.3zM200.2 724.2c-31.9 0-57.8-25.9-57.8-57.8v-145.3c0-31.9 25.9-57.8 57.8-57.8h145.3c31.9 0 57.8 25.9 57.8 57.8V666.4c0 31.9-25.9 57.8-57.8 57.8H200.2zM723 383.8c-27.5 0-55 10.4-75.9 31.4L544.4 517.9c-41.8 41.9-41.8 109.9 0 151.8l102.8 102.8c20.3 20.3 47.2 31.4 75.9 31.4 28.7 0 55.6-11.2 75.9-31.4l102.8-102.8c20.3-20.3 31.4-47.2 31.4-75.9s-11.2-55.6-31.4-75.9L798.9 415.1c-20.9-20.9-48.4-31.3-75.9-31.3z m0 370.5c-15.4 0-30-6-40.9-16.9L579.4 634.6c-22.5-22.5-22.5-59.2 0-81.7l102.8-102.8c22.5-22.5 59.2-22.5 81.7 0l102.8 102.8c10.9 10.9 16.9 25.4 16.9 40.9 0 15.4-6 29.9-16.9 40.9L763.9 737.4c-11 10.9-25.5 16.9-40.9 16.9z"  horiz-adv-x="1024" />

    
    <glyph glyph-name="renshengjieduan" unicode="&#58896;" d="M138.971429 259.657143c-14.628571 0-36.571429 0-51.2 7.314286-21.942857 7.314286-29.257143 14.628571-43.885715 21.942857-7.314286 21.942857-14.628571 29.257143-21.942857 43.885714-7.314286 36.571429-7.314286 65.828571 0 102.4 7.314286 7.314286 14.628571 21.942857 21.942857 29.257143 7.314286 7.314286 21.942857 21.942857 43.885715 21.942857 14.628571 7.314286 36.571429 7.314286 51.2 7.314286h14.628571l175.542857 219.428571c0 7.314286-7.314286 14.628571-7.314286 14.628572V749.714286c0 14.628571 0 36.571429 7.314286 51.2 7.314286 14.628571 14.628571 21.942857 36.571429 43.885714 7.314286 7.314286 21.942857 21.942857 43.885714 21.942857 21.942857 7.314286 58.514286 7.314286 95.085714 0 7.314286 0 14.628571-7.314286 29.257143-14.628571 7.314286-7.314286 14.628571-21.942857 21.942857-43.885715s7.314286-36.571429 7.314286-51.2 0-21.942857-7.314286-43.885714c0-7.314286-7.314286-21.942857-14.628571-36.571428l153.6-336.457143 80.457143 153.6c-7.314286 7.314286-7.314286 21.942857-14.628572 36.571428v36.571429c0 14.628571 0 36.571429 7.314286 51.2 14.628571 36.571429 36.571429 58.514286 73.142857 65.828571 36.571429 14.628571 65.828571 14.628571 102.4 0 14.628571-7.314286 21.942857-14.628571 43.885714-21.942857 7.314286-7.314286 14.628571-21.942857 21.942858-43.885714 7.314286-7.314286 7.314286-21.942857 7.314285-51.2 0-36.571429-14.628571-65.828571-36.571428-95.085714-7.314286-7.314286-21.942857-21.942857-43.885715-21.942858-14.628571-7.314286-36.571429-7.314286-51.2-7.314285h-21.942857l-80.457143-153.6c14.628571-7.314286 21.942857-21.942857 36.571429-43.885715 7.314286-14.628571 7.314286-36.571429 7.314286-51.2 0-51.2-36.571429-102.4-73.142857-117.028571-36.571429-14.628571-65.828571-14.628571-102.4 0-14.628571 7.314286-21.942857 14.628571-43.885715 21.942857-7.314286 7.314286-14.628571 21.942857-21.942857 36.571429 0 14.628571-7.314286 36.571429-7.314286 51.2 0 14.628571 0 36.571429 7.314286 51.2 0 21.942857 7.314286 36.571429 29.257143 43.885714L460.8 632.685714h-36.571429c-7.314286 0-14.628571 7.314286-21.942857 7.314286L241.371429 449.828571c7.314286-7.314286 7.314286-21.942857 14.628571-36.571428v-36.571429c0-14.628571 0-36.571429-7.314286-51.2-7.314286-7.314286-14.628571-14.628571-21.942857-36.571428-14.628571-7.314286-21.942857-14.628571-43.885714-21.942857-14.628571-7.314286-29.257143-7.314286-43.885714-7.314286zM7.314286 10.971429h1002.057143v-124.342858H7.314286v124.342858z"  horiz-adv-x="1024" />

    
    <glyph glyph-name="grouping" unicode="&#58922;" d="M992 384c0 12-6 24-18 30l-108 60 108 60c12 0 18 12 18 30 0 12-6 24-18 30L530 828c-12 6-24 6-30 0L50 594c-12-6-18-18-18-30s6-24 18-30l108-60-108-60c-12-6-18-18-18-30s6-24 18-30l108-60-108-60c-12 0-18-12-18-30 0-12 6-24 18-30l444-234c6 0 12-6 18-6 6 0 12 0 18 6l444 234c12 6 18 18 18 30s-6 24-18 30l-108 60 108 60c12 6 18 18 18 30zM140 564L512 756 884 564 512 366 140 564z m744-360L512 12 140 204l90 48 264-138c6 0 12-6 18-6 6 0 12 0 18 6l264 138 90-48z m-372-18L140 384l90 48 264-138c6 0 12-6 18-6 6 0 12 0 18 6l264 138 90-48L512 186z"  horiz-adv-x="1024" />

    
    <glyph glyph-name="download1" unicode="&#58887;" d="M512 832a448 448 0 1 0-448-448 448 448 0 0 0 448 448m0 64a512 512 0 1 1 512-512 512 512 0 0 1-512 512zM739.84 329.6a31.36 31.36 0 0 1-45.44 44.16l-134.4-139.52V576a32 32 0 0 1-64 0v-346.24L348.16 373.12a32 32 0 0 1-44.8-45.44l223.36-219.52 15.36 16 28.8 28.8 167.68 173.44z"  horiz-adv-x="1024" />

    
    <glyph glyph-name="chengji" unicode="&#58898;" d="M849 849c49.706 0 90-40.294 90-90v-749c0-49.706-40.294-90-90-90H172c-49.706 0-90 40.294-90 90V759c0 49.706 40.294 90 90 90h677z m-35-60H207c-32.259 0-58.471-25.89-58.992-58.024L148 730v-693c0-32.259 25.89-58.471 58.024-58.992L207-22h607c32.259 0 58.471 25.89 58.992 58.024L873 37V730c0 32.585-26.415 59-59 59z m-74.5-644c15.188 0 27.5-12.312 27.5-27.5S754.688 90 739.5 90h-457c-15.188 0-27.5 12.312-27.5 27.5s12.312 27.5 27.5 27.5h457z m0 122c15.188 0 27.5-12.312 27.5-27.5S754.688 212 739.5 212h-457c-15.188 0-27.5 12.312-27.5 27.5s12.312 27.5 27.5 27.5h457zM408.113 668.79L518.49 381.249c3.958-10.312-1.192-21.88-11.504-25.84-10.312-3.958-21.88 1.193-25.84 11.505L449.637 449H325.019l-31.633-82.408c-3.916-10.202-15.281-15.352-25.51-11.627l-0.329 0.123c-10.312 3.958-15.462 15.527-11.504 25.839L366.42 668.47c3.145 8.19 11.09 13.125 19.393 12.825 9.296 1.725 18.79-3.36 22.3-12.504zM739.5 421c15.188 0 27.5-12.312 27.5-27.5S754.688 366 739.5 366h-158c-15.188 0-27.5 12.312-27.5 27.5s12.312 27.5 27.5 27.5h158zM655 674c12.15 0 22-9.85 22-22v-56h46c12.15 0 22-9.85 22-22s-9.85-22-22-22h-46v-46c0-12.15-9.85-22-22-22s-22 9.85-22 22v46h-57c-12.15 0-22 9.85-22 22s9.85 22 22 22h57v56c0 12.15 9.85 22 22 22z m-267.672-62.68L340.373 489h93.909l-46.954 122.32z"  horiz-adv-x="1024" />

    
    <glyph glyph-name="wenjian" unicode="&#59193;" d="M768 319.8H336.7c-8.9 0-16.2-7.3-16.2-16.1 0-9 7.3-16.2 16.2-16.2H768c8.9 0 16.2 7.3 16.2 16.2s-7.3 16.1-16.2 16.1zM768 480.4H336.7c-8.9 0-16.2-7.2-16.2-16.2 0-8.9 7.3-16.2 16.2-16.2H768c8.9 0 16.2 7.3 16.2 16.2 0 9-7.3 16.2-16.2 16.2zM768 159.3H336.7c-8.9 0-16.2-7.3-16.2-16.2s7.3-16.1 16.2-16.1H768c8.9 0 16.2 7.1 16.2 16.1 0 8.9-7.3 16.2-16.2 16.2zM768 641H336.7c-8.9 0-16.2-7.4-16.2-16.3s7.3-16.1 16.2-16.1H768c8.9 0 16.2 7.2 16.2 16.1 0 8.9-7.3 16.3-16.2 16.3zM827.8 831.9H273.1c-48.8-0.2-88-39.4-88.2-88.3v-18.4c-1 0.1-2.2 0.1-3.3 0.1-40.7 0-73.7-33.4-73.7-75 0-41.2 33-74.9 73.7-74.9 1.2 0 2.2 0.1 3.3 0.1h0.1v-116.7c-1 0.1-2.2 0.1-3.3 0.1-40.7 0-73.7-33.6-73.7-75 0-41.5 33-75 73.7-75 1.2 0 2.2 0.1 3.3 0.1v-116.9c-1 0.1-2.2 0.1-3.3 0.1-40.7 0-73.7-33.5-73.7-74.9 0-41.6 33-75 73.7-75 1.2 0 2.2 0.1 3.3 0.1v-18.3c0.2-48.8 39.4-88 88.2-88.2h554.6c48.8 0.2 88 39.4 88.2 88.2V743.7c-0.2 48.8-39.4 88-88.2 88.2z m12.1-807.7c0-6.5-5.7-12.3-12.2-12.3H273c-6.4 0-12.2 5.8-12.2 12.3V743.8c0 6.4 5.8 12.3 12.4 12.3h554.5c6.4 0 12.2-5.9 12.2-12.3v-719.6z"  horiz-adv-x="1024" />

    
    <glyph glyph-name="liuchengguanli" unicode="&#58895;" d="M307.199829 896v-1023.999431H102.399943v204.799886H0v102.399943h102.399943V332.800313H0V435.200256h102.399943V588.800171H0V691.200114h102.399943V896z m614.399659 0A102.399943 102.399943 0 0 0 1023.999431 794.112057v-820.223545A102.001721 102.001721 0 0 0 921.599488-127.999431h-511.999716V896z"  horiz-adv-x="1024" />

    
    <glyph glyph-name="xiugaimima" unicode="&#58931;" d="M767.817 533.678h-42.636V618.95c0 117.676-95.505 213.181-213.181 213.181S298.819 736.626 298.819 618.95v-85.272h-42.636c-46.9 0-85.272-38.373-85.272-85.272v-426.362c0-46.9 38.373-85.272 85.272-85.272h511.635c46.9 0 85.272 38.373 85.272 85.272V448.406c0 46.9-38.373 85.272-85.273 85.272zM512 149.952c-46.9 0-85.272 38.373-85.272 85.272S465.1 320.497 512 320.497s85.272-38.373 85.272-85.272S558.9 149.952 512 149.952z m132.172 383.726H379.828V618.95c0 72.908 59.264 132.172 132.172 132.172s132.172-59.264 132.172-132.172v-85.272z"  horiz-adv-x="1024" />

    
    <glyph glyph-name="zhuce" unicode="&#58926;" d="M722.6 250.705c17.497 26.999 9.793 63.072-17.206 80.567-21.997 14.255-45.104 26.406-69.045 36.377 69.66 51.387 114.937 134.006 114.937 227.013 0 155.467-126.483 281.951-281.951 281.951s-281.951-126.483-281.951-281.951c0-92.95 45.223-175.527 114.811-226.919-51.763-21.557-99.309-53.261-140.153-94.103-82.080-82.080-127.284-191.213-127.284-307.292 0-32.174 26.082-58.254 58.254-58.254s58.254 26.080 58.254 58.254c0 175.385 142.685 318.068 318.068 318.068 61.579 0 121.298-17.606 172.699-50.915 27.002-17.498 63.074-9.793 80.567 17.206zM469.334 760.103c91.225 0 165.442-74.218 165.442-165.442s-74.218-165.442-165.442-165.442c-91.225 0-165.442 74.217-165.442 165.442s74.218 165.442 165.442 165.442zM926.63 152.803h-66.992v66.992c0 32.174-26.080 58.254-58.254 58.254s-58.254-26.080-58.254-58.254v-66.992h-66.992c-32.174 0-58.254-26.080-58.254-58.254s26.080-58.254 58.254-58.254h66.992v-66.992c0-32.174 26.080-58.254 58.254-58.254s58.254 26.080 58.254 58.254v66.992h66.992c32.174 0 58.254 26.080 58.254 58.254s-26.080 58.254-58.254 58.254z"  horiz-adv-x="1024" />

    
    <glyph glyph-name="download" unicode="&#58916;" d="M815.588 686.143c81.631-81.27 123.891-184.212 127.142-308.825-3.251-118.835-45.511-218.164-127.142-298.712-81.27-80.547-184.212-122.447-308.825-125.697-118.835 3.251-218.164 45.15-298.712 125.697-80.547 80.547-122.447 179.877-125.697 298.712 3.251 124.253 45.15 227.556 125.697 308.825 80.547 81.631 179.877 123.891 298.712 127.142 124.614-3.251 227.556-45.511 308.825-127.142zM666.413 335.057c-3.973 8.308-13.364 12.642-28.896 12.642h-89.577l0 268.371c0 5.057-1.445 9.391-4.696 13.003s-7.224 5.418-12.642 5.418h-36.481c-4.334 0-8.669-1.806-11.92-5.418-3.612-3.612-5.418-7.946-5.418-13.003v-268.371h-89.577c-15.532 0-24.923-4.334-28.896-12.642-3.973-8.308-1.445-18.421 7.585-29.98l113.417-148.092c9.752-11.558 20.588-17.338 32.869-17.338s23.117 5.779 32.869 17.338l113.417 148.092c9.391 11.558 11.92 21.672 7.946 29.98z"  horiz-adv-x="1024" />

    
    <glyph glyph-name="xiazai2" unicode="&#58939;" d="M389.842311 526.724609c0 0-54.207599 52.138474-127.760802 9.55461-65.813938-40.649815-54.193273-115.050316-54.193273-115.050316S61.690526 392.826016 61.690526 243.776352c3.281743-148.84091 158.777213-150.336984 158.777213-150.336984l309.799812 0.467651L386.531915 223.831091l79.646991-0.864694 0.013303 157.420309 102.108562 0.694825 0.732687-157.684322 77.813227-1.106194L530.266527 93.439368l262.197654 0c0 0 144.715963-0.148379 165.04087 141.442406 9.680477 154.855904-139.875724 185.378058-139.875724 185.378058s17.017582 229.233891-193.000666 255.367085C444.611705 694.012659 389.842311 526.724609 389.842311 526.724609z"  horiz-adv-x="1024" />

    
    <glyph glyph-name="yanshibofang" unicode="&#58952;" d="M281.5 138.5h-79.7c-28.6 0-51.9 23.2-51.9 51.9v493h-13.1c-21.5 0-38.9 17.4-38.9 38.9s17.4 38.9 38.9 38.9h751.9c21.5 0 38.9-17.4 38.9-38.9s-17.4-38.9-38.9-38.9h-12.9v-493c0-28.6-23.2-51.9-51.9-51.9h-86.4l45.1-45.1c19.6-20.9 18.5-53.7-2.4-73.3-20-18.7-51-18.7-71 0l-110 110c-2.5 2.6-4.8 5.4-6.8 8.4h-166c-2-3-4.2-5.8-6.8-8.4l-110-109.9c-19.9-20.6-52.7-21.2-73.3-1.3-20.6 19.9-21.2 52.7-1.3 73.3 0.4 0.4 0.8 0.9 1.3 1.3l45.1 45.1 0.1-0.1z m-70.4 531.2V203h602.3V669.7H211.1zM428.9 593.3l218.7-132.6c8.3-5 8.3-17.1 0-22.2L428.9 306c-8.6-5.2-19.7 1-19.7 11.1V582.2c0 10.1 11.1 16.3 19.7 11.1z"  horiz-adv-x="1024" />

    
    <glyph glyph-name="tubiao209" unicode="&#58943;" d="M872.557745 735.939046l-720.137162 0c-66.384034 0-120.021155-53.626887-120.021155-119.878908l0-464.274803c0-66.249975 53.637121-119.881978 120.021155-119.881978l720.137162 0c66.136382 0 120.022178 53.632004 120.022178 119.881978L992.579923 616.060138C992.580946 682.312159 938.694127 735.939046 872.557745 735.939046zM928.565979 151.785335c0-30.808111-25.129512-55.875199-56.007211-55.875199l-720.137162 0c-30.881792 0-56.007211 25.066064-56.007211 55.875199L96.414395 616.060138c0 30.750803 25.126442 55.878269 56.007211 55.878269l720.137162 0c30.878722 0 56.007211-25.127466 56.007211-55.878269L928.565979 151.785335zM833.235318 519.802317l-320.745131-206.758702-320.872027 206.758702c-14.881633 9.50083-34.633413 5.255953-44.258069-9.562232-9.504924-14.874469-5.256976-34.685604 9.624656-44.249883l338.190268-217.887691c5.248789-3.433357 11.315239-5.061515 17.315171-5.061515 6.003002 0 12.063312 1.628158 17.316195 5.061515l338.058255 217.887691c14.881633 9.564279 19.196098 29.375413 9.571442 44.249883C867.863614 525.116601 847.926606 529.303147 833.235318 519.802317z"  horiz-adv-x="1025" />

    
    <glyph glyph-name="kongzhitai" unicode="&#58962;" d="M944.38 825.81h-864c-44.19 0-80-35.81-80-80v-571.43c0-44.19 35.81-80 80-80h864c44.18 0 80 35.81 80 80V745.81c0 44.19-35.82 80-80 80z m5.45-603.45c0-26.26-21.29-47.55-47.55-47.55H750.12V450.59c0 26.26-21.28 47.55-47.55 47.55-26.26 0-47.55-21.29-47.55-47.55v-275.78h-95.1V545.69c0 26.26-21.28 47.55-47.55 47.55-26.26 0-47.55-21.29-47.55-47.55v-370.88h-95.1v199.7c0 26.26-21.28 47.55-47.55 47.55-26.26 0-47.55-21.28-47.55-47.55v-199.7H122.49c-26.26 0-47.55 21.29-47.55 47.55V697.84c0 26.26 21.29 47.55 47.55 47.55h779.79c26.26 0 47.55-21.29 47.55-47.55v-475.48zM722.67 21.24H302.09c-25.25 0-45.71-20.47-45.71-45.71 0-25.25 20.47-45.71 45.71-45.71h420.58c25.24 0 45.71 20.46 45.71 45.71 0 25.24-20.47 45.71-45.71 45.71z m0 0"  horiz-adv-x="1024" />

    
    <glyph glyph-name="kongzhi" unicode="&#58961;" d="M191.51 686.39c-10.37 4.1-21.67 6.35-33.5 6.35-11.83 0-23.13-2.25-33.5-6.35V845.73c0 18.5 15 33.5 33.5 33.5 18.51 0 33.5-15 33.5-33.5v-159.34z m0-169.1v-593.95c0-18.5-14.99-33.5-33.5-33.5-18.5 0-33.5 15-33.5 33.5V517.29c10.37-4.1 21.67-6.35 33.5-6.35 11.83 0 23.14 2.25 33.5 6.35zM541.16 254.18c-10.4 4.14-21.75 6.41-33.62 6.41-11.78 0-23.05-2.24-33.38-6.32V845.73c0 18.5 15 33.5 33.5 33.5s33.5-15 33.5-33.5v-591.55z m0-169.2v-161.63c0-18.5-15-33.5-33.5-33.5s-33.5 15-33.5 33.5V84.89c10.33-4.08 21.6-6.32 33.38-6.32a90.56 90.56 0 0 1 33.62 6.41z m359.01 474.95c-10.55 4.27-22.09 6.63-34.18 6.63-11.57 0-22.64-2.16-32.82-6.09V845.73c0 18.5 15 33.5 33.5 33.5s33.5-15 33.5-33.5v-285.8z m0-168.55v-468.04c0-18.5-15-33.5-33.5-33.5s-33.5 15-33.5 33.5v467.5c10.18-3.93 21.25-6.09 32.82-6.09 12.09 0 23.63 2.36 34.18 6.63z m0 0M158.01 443.94C70.76 443.94 0 514.62 0 601.84c0 87.23 70.76 157.9 158.01 157.9 87.25 0 158.01-70.67 158.01-157.9 0-87.22-70.76-157.9-158.01-157.9z m349.53-432.38c-87.27 0-158.02 70.75-158.02 158.02 0 87.26 70.75 158.01 158.02 158.01 87.26 0 158.01-70.75 158.01-158.01 0-87.27-70.75-158.02-158.01-158.02z m358.45 306.19c-87.24 0-158.01 70.68-158.01 157.91s70.76 157.9 158.01 157.9c87.25 0 158.02-70.68 158.02-157.9s-70.77-157.91-158.02-157.91zM158.01 510.94c50.26 0 91.01 40.7 91.01 90.9s-40.75 90.9-91.01 90.9-91.01-40.7-91.01-90.9 40.75-90.9 91.01-90.9z m349.53-432.38c50.26 0 91.01 40.75 91.01 91.02 0 50.26-40.75 91.01-91.01 91.01-50.27 0-91.02-40.75-91.02-91.01 0-50.27 40.75-91.02 91.02-91.02z m358.45 306.19c50.27 0 91.02 40.7 91.02 90.9s-40.75 90.9-91.02 90.9c-50.26 0-91.01-40.7-91.01-90.9s40.75-90.9 91.01-90.9z m0 0"  horiz-adv-x="1024" />

    
    <glyph glyph-name="kongzhiqi" unicode="&#58960;" d="M880.851458 891.675415H139.613566c-75.670277 0-138.506301-61.550606-138.506301-138.496337v-741.237892c0-75.660312 61.56057-138.496336 138.496336-138.496336h741.237893c75.660312 0 138.496336 61.56057 138.496336 138.496336V753.179078c0.009964 76.945731-61.540641 138.496336-138.486372 138.496337z m66.821817-873.446641c0-40.336223-32.783146-73.119369-73.119369-73.119369H145.901154c-40.346188 0-73.119369 32.773182-73.119369 73.119369V746.89149c0 40.346188 32.773182 73.119369 73.119369 73.11937h728.662716c40.336223 0 73.119369-32.773182 73.119369-73.11937V18.228774z m7.553077-6.287588M280.680739 401.801547V750.618207c0 17.955997-14.109707 32.055739-32.065704 32.055738s-32.055739-14.109707-32.055739-32.055738v-350.102078c-52.572607-14.109707-91.055437-61.550606-91.055437-119.264886 0-57.704316 38.472865-105.155179 91.055437-119.264886v-162.869459c0-17.955997 14.109707-32.055739 32.055739-32.055739 17.955997 0 32.065703 14.109707 32.065704 32.055739V163.271775c52.572607 14.099742 91.055437 61.550606 91.055437 119.264886-0.009964 57.704316-38.48283 105.155179-91.055437 119.264886z m-30.780286-179.550002h-2.560871c-32.055739 0-58.989734 26.933995-58.989734 58.989734 0 33.341157 26.933995 58.989734 58.989734 58.989734s58.989734-26.924031 58.989733-58.989734c2.560872-30.770321-24.373123-57.704316-56.428862-58.989734z m541.180986 87.209147V750.618207c0 17.955997-14.109707 32.055739-32.055739 32.055738-17.955997 0-32.055739-14.109707-32.055738-32.055738v-441.147551c-52.582572-14.109707-91.055437-61.56057-91.055438-119.264886 0-56.428862 38.472865-105.155179 91.055438-119.264885v-71.814023c0-17.955997 14.109707-32.055739 32.055738-32.055739 17.955997 0 32.055739 14.109707 32.055739 32.055739V70.940885c52.582572 14.109707 91.055437 61.56057 91.055437 119.264885-0.009964 57.694351-38.472865 105.145215-91.055437 119.254922z m-32.065703-178.25462c-33.341157 0-58.989734 26.933995-58.989734 58.989734 0 33.341157 26.933995 58.989734 58.989734 58.989734 33.341157 0 58.989734-26.933995 58.989734-58.989734s-25.638612-58.989734-58.989734-58.989734z m-216.727485 511.686119v109.011434c0 17.955997-14.109707 32.055739-32.055739 32.055739-17.955997 0-32.055739-14.109707-32.055739-32.055739v-109.011434c-52.582572-14.109707-91.055437-61.56057-91.055437-119.264886 0-56.428862 38.472865-105.155179 91.055437-119.264886v-403.960103c0-17.955997 14.109707-32.055739 32.055739-32.055739 17.955997 0 32.055739 14.109707 32.055739 32.055739v403.960103c52.582572 14.109707 91.055437 61.550606 91.055437 119.264886 0 56.428862-38.472865 105.155179-91.055437 119.264886z m-32.055739-179.540038c-33.341157 0-58.989734 26.924031-58.989734 58.989734 0 33.341157 26.933995 58.989734 58.989734 58.989734 33.341157 0 58.989734-26.924031 58.989734-58.989734 0-32.055739-25.648577-58.989734-58.989734-58.989734z m0 0"  horiz-adv-x="1024" />

    
    <glyph glyph-name="bofang" unicode="&#58892;" d="M512 384m-512 0a512 512 0 1 1 1024 0 512 512 0 1 1-1024 0ZM846.185477 379.590608L343.004261 89.081316a1.415647 1.415647 0 0 0-2.123471 1.160367V671.329888a1.415647 1.415647 0 0 0 2.123471 1.229989l503.181216-290.509292a1.42725 1.42725 0 0 0 0-2.459977zM382.665579 101.207144a59.178678 59.178678 0 0 0-58.935002 59.016227V601.429426a58.935001 58.935001 0 0 0 88.36189 51.056115L794.189466 431.853504a58.911794 58.911794 0 0 0 0-102.112229L412.092467 109.190463a58.818965 58.818965 0 0 0-29.426888-7.983319z m0 524.891668a24.739008 24.739008 0 0 1-24.657783-24.669386v-441.206055a24.657783 24.657783 0 0 1 36.980872-21.339136l382.062189 220.597226a24.622972 24.622972 0 0 1 0 42.678271L394.988668 622.756958a24.599764 24.599764 0 0 1-12.323089 3.341854zM512 384m-512 0a512 512 0 1 1 1024 0 512 512 0 1 1-1024 0ZM846.185477 379.590608L343.004261 89.081316a1.415647 1.415647 0 0 0-2.123471 1.160367V671.329888a1.415647 1.415647 0 0 0 2.123471 1.229989l503.181216-290.509292a1.42725 1.42725 0 0 0 0-2.459977zM382.665579 84.033723a76.38691 76.38691 0 0 0-76.073611 76.189648V601.429426a76.073611 76.073611 0 0 0 114.110416 65.862388l382.062189-220.585622a76.073611 76.073611 0 0 0 0-131.771191l-382.062189-220.585622a75.992385 75.992385 0 0 0-38.036805-10.315656z m0 524.949687a7.484362 7.484362 0 0 1-3.759587-1.07914 7.147856 7.147856 0 0 1-3.759586-6.486447v-441.194452a7.530777 7.530777 0 0 1 11.267156-6.509655l382.073792 220.60883a7.495966 7.495966 0 0 1 0 12.996101l-382.073792 220.585623a7.298704 7.298704 0 0 1-3.747983 1.07914z"  horiz-adv-x="1024" />

    
    <glyph glyph-name="daoru" unicode="&#58894;" d="M13.192915 383.993434A41.682289 41.682289 0 0 1 54.875204 341.829269h510.547806L389.899614 166.66728a41.682289 41.682289 0 1 1 59.029831-59.029831L670.712954 329.782365a76.738781 76.738781 0 0 1 0 108.422139L448.929445 660.34942a41.441351 41.441351 0 0 1-29.514916 12.046904 41.682289 41.682289 0 0 1-29.514915-71.317673L565.543479 426.1576H54.875204A41.682289 41.682289 0 0 1 13.192915 383.993434zM827.925055-44.514953H310.751452c-55.897636 0-99.146023 64.571407-99.146023 120.469043a41.802758 41.802758 0 1 1-83.485047 0 219.374128 219.374128 0 0 1 49.994653-137.455178A171.668387 171.668387 0 0 1 310.751452-128h517.173603a183.112946 183.112946 0 0 1 182.872008 182.872008V715.283304a181.426379 181.426379 0 0 1-180.703565 180.703565H310.751452A180.703565 180.703565 0 0 1 127.879444 713.114861v-24.093809l82.521295-1.566097 1.084221 28.91257a10.601276 10.601276 0 0 1 0 2.770788 96.375235 96.375235 0 0 0 99.266492 93.363509h518.86017A97.820863 97.820863 0 0 0 927.312016 715.283304v-660.411296a99.50743 99.50743 0 0 0-99.386961-99.386961z"  horiz-adv-x="1024" />

    
    <glyph glyph-name="tijiao" unicode="&#58904;" d="M108.48-13.441V781.956c0 20.114 16.065 36.42 35.882 36.42h665.107c19.817 0 35.883-16.306 35.883-36.42v-399.612h55.773V834.857c0.001 22.817-18.496 41.314-41.313 41.314H94.019c-22.817 0-41.314-18.497-41.314-41.314V-67.42c0-22.817 18.497-41.314 41.314-41.314h384.968v58.872H144.362c-19.817 0-35.882 16.306-35.882 36.421zM224.597 561.719h504.637c14.912 0 27 12.088 27 27s-12.088 27-27 27H224.597c-14.912 0-27-12.088-27-27s12.088-27 27-27zM224.597 380.719h504.637c14.912 0 27 12.088 27 27s-12.088 27-27 27H224.597c-14.912 0-27-12.088-27-27s12.088-27 27-27zM226.296 199.719h504.637c14.912 0 27 12.088 27 27s-12.088 27-27 27H226.296c-14.912 0-27-12.088-27-27s12.088-27 27-27zM964.387 294.185c-10.544 10.544-27.64 10.544-38.184 0L588.775-43.243 385.284 160.248c-10.544 10.544-27.64 10.544-38.184 0-10.544-10.544-10.544-27.64 0-38.184l219.161-219.161 2-2 4.844-4.844c10.524-7.297 25.075-6.266 34.45 3.11l19.404 19.404 337.428 337.428c10.544 10.545 10.544 27.64 0 38.184z"  horiz-adv-x="1024" />

    
    <glyph glyph-name="yitijiao-1" unicode="&#58900;" d="M918.954 570.954l-250 250.4c-6 6-14.1 9.4-22.6 9.4h-400.1c-83.1-0.1-150.5-67.5-150.5-150.7v-592.2c0.1-83 67.4-150.4 150.5-150.6h531.5c83.1 0.1 150.5 67.5 150.5 150.7v460.4c0 8.5-3.3 16.6-9.3 22.6zM669.354 381.354l-156.9 196.2-156.9-196.2h98v-187.5h117.7v187.5h98.1zM919.054 571.054h-151.7c-55.5 0-100.6 45-100.6 100.6v151.7l127.8-126.3 124.5-126z"  horiz-adv-x="1024" />

    
    <glyph glyph-name="yitijiao-" unicode="&#58907;" d="M906.554 565.254l-242.4 242.8c-5.8 5.8-13.7 9.1-21.9 9.1h-387.9c-80.6-0.1-145.9-65.4-145.9-146.1v-574.2c0.1-80.5 65.3-145.8 145.9-146h515.3c80.6 0.1 145.9 65.4 145.9 146.1v446.4c0 8.2-3.2 16.1-9 21.9zM664.554 381.454l-152.1 190.2-152.1-190.2h95v-181.8h114.1v181.8h95.1zM906.654 565.354h-147.1c-53.8 0-97.5 43.6-97.5 97.5v147.1l123.9-122.4 120.7-122.2z"  horiz-adv-x="1024" />

    
    <glyph glyph-name="wenjianshangchuan" unicode="&#58902;" d="M884.2-13.6H126.8c-38.6 0-70 31.4-70 70V691.4c0 38.6 31.4 70 70 70h328.6c38.6 0 70-31.4 70-70 0-11-9-20-20-20s-20 9-20 20c0 16.6-13.4 30-30 30H126.8c-16.6 0-30-13.4-30-30v-635c0-16.6 13.4-30 30-30h757.4c11 0 20-9 20-20s-8.8-20-20-20zM884.2-13.6c-11 0-20 9-20 20s9 20 20 20c16.6 0 30 13.4 30 30V467.8c0 16.6-13.4 30-30 30H292.6c-16.6 0-30-13.4-30-30v-268.6c0-11-9-20-20-20s-20 9-20 20V467.8c0 38.6 31.4 70 70 70h591.6c38.6 0 70-31.4 70-70v-411.4c0-38.6-31.4-70-70-70zM734 601h-178.2c-38.6 0-70 31.4-70 70v10.4c0 11 9 20 20 20s20-9 20-20v-10.4c0-16.6 13.4-30 30-30H734c11 0 20-9 20-20s-9-20-20-20zM192.8-13.6h-15.8c-11 0-20 9-20 20s9 20 20 20h15.8c16.6 0 30 13.4 30 30v168.6c0 11 9 20 20 20s20-9 20-20v-168.6c-0.2-38.6-31.4-70-70-70zM818 497.6c-11 0-20 9-20 20v53.2c0 16.6-13.4 30-30 30h-90.4c-11 0-20 9-20 20s9 20 20 20H768c38.6 0 70-31.4 70-70v-53.2c0-11-9-20-20-20zM598.2 131.4c-11 0-20 9-20 20V363.6c0 11 9 20 20 20s20-9 20-20v-212.2c0-11-9-20-20-20zM683.8 258c-5.2 0-10.2 2-14.2 5.8L584 349.4c-7.8 7.8-7.8 20.4 0 28.2 7.8 7.8 20.4 7.8 28.2 0L698 292c7.8-7.8 7.8-20.4 0-28.2-4-4-9-5.8-14.2-5.8zM512.4 258c-5.2 0-10.2 2-14.2 5.8-7.8 7.8-7.8 20.4 0 28.2l85.8 85.8c7.8 7.8 20.4 7.8 28.2 0 7.8-7.8 7.8-20.4 0-28.2l-85.8-85.8c-3.8-4-8.8-5.8-14-5.8z"  horiz-adv-x="1024" />

    
    <glyph glyph-name="xinjianwenjianjia" unicode="&#59025;" d="M928 150.4v-25.9c0-28.6-23.2-51.9-51.9-51.9H149.9c-28.6 0-51.9 23.2-51.9 51.9V643.2c0 28.6 23.2 51.9 51.9 51.9H430l83-77.8h332c45.6 0 83-35 83-77.8v-389.1zM513 487.6c-21.5 0-38.9-17.4-38.9-38.9v-77.8h-77.8c-21.5 0-38.9-17.4-38.9-38.9s17.4-38.9 38.9-38.9h77.8v-77.8c0-21.5 17.4-38.9 38.9-38.9s38.9 17.4 38.9 38.9v77.8h77.8c21.5 0 38.9 17.4 38.9 38.9s-17.4 38.9-38.9 38.9h-77.8v77.8c0 21.5-17.4 38.9-38.9 38.9z"  horiz-adv-x="1024" />

    
    <glyph glyph-name="qushiyanshi" unicode="&#59128;" d="M753.108114 577.821257 566.857143 391.572114 438.857143 519.572114 188.214857 268.928 214.072686 243.072 438.857143 467.856457 566.857143 339.856457 778.964114 551.963429 809.393371 521.570743 841.142857 640 722.678857 608.250514ZM950.857143 786.285714 548.571429 786.285714 548.571429 822.857143c0 20.214857-16.356571 36.571429-36.571429 36.571429s-36.571429-16.356571-36.571429-36.571429l0-36.571429L73.142857 786.285714c-20.214857 0-36.571429-16.374857-36.571429-36.571429l0-36.571429 0-548.571429 0-36.571429c0-20.214857 16.356571-36.571429 36.571429-36.571429l167.714743 0L83.858286-65.570743c-14.2848-14.2848-14.2848-37.429029 0-51.713829C91.000686-124.4288 100.357486-128 109.714286-128s18.7136 3.5712 25.857829 10.7136L344.285257 91.428571l335.429486 0L888.429714-117.2864C895.572114-124.4288 904.928914-128 914.285714-128s18.7136 3.5712 25.857829 10.7136c14.2848 14.2848 14.2848 37.429029 0 51.713829L783.1424 91.428571 950.857143 91.428571c20.214857 0 36.571429 16.356571 36.571429 36.571429l0 36.571429L987.428571 713.142857 987.428571 749.714286C987.428571 769.910857 971.072 786.285714 950.857143 786.285714zM109.714286 164.571429 109.714286 713.142857l804.571429 0 0-548.571429L109.714286 164.571429z"  horiz-adv-x="1024" />

    
    <glyph glyph-name="Microsoft-Excel" unicode="&#59094;" d="M943.5 716.3H643.2v-55.6h88.5v-87.9h-88.5v-28h88.5v-88h-88.5V428h88.5v-83.2h-88.5v-33.4h88.5V228h-88.5v-33.4h88.5v-83.9h-88.5v-61.2h300.3c4.7 1.4 8.7 7 11.9 16.7 3.2 9.8 4.8 17.7 4.8 23.8V706.2c0 4.8-1.6 7.7-4.8 8.7-3.9 1-7.9 1.5-11.9 1.4z m-39-605.5h-144v83.8h144.1l-0.1-83.8z m0 117.2h-144v83.5h144.1l-0.1-83.5z m0 116.8h-144v82.9h144.1l-0.1-82.9z m0 112h-144v87.9h144.1l-0.1-87.9z m0 116.5h-144v87.4h144.1v-88l-0.1 0.6zM63.8 730.2v-694.7L592.7-56V824L63.8 729.9v0.3z m313.5-525.5c-2 5.5-11.5 28.6-28.3 69.6-9.7 23.9-19.7 47.8-29.8 71.6h-0.9l-56.7-135-75.8 5.1 89.8 168-82.4 168 77.3 4.1 51.1-131.5h1l57.7 137.5 79.9 5-95.1-181.9 98-185.5-85.8 5z"  horiz-adv-x="1024" />

    
    <glyph glyph-name="ppt" unicode="&#58959;" d="M968.704 760.832h-430.08v-752.64h430.08c15.36 0 26.624 12.288 26.624 26.624V733.184c0 15.36-11.264 27.648-26.624 27.648zM512 249.856h376.832v-53.248H512z m0-107.52h376.832v-54.272H512z m161.792 483.328c-89.088 0-161.792-72.704-161.792-161.792C512 374.784 584.704 302.08 673.792 302.08s161.792 72.704 161.792 161.792H673.792V625.664zM727.04 679.936v-161.792h161.792c0 89.088-72.704 161.792-161.792 161.792zM592.896-100.352L28.672 7.168V760.832L592.896 868.352zM319.488 568.32H192.512v-368.64h78.848V326.656h40.96c44.032 0 78.848 11.264 104.448 34.816 25.6 22.528 38.912 53.248 38.912 90.112C455.68 529.408 409.6 568.32 319.488 568.32z m-14.336-178.176h-33.792V504.832h33.792c43.008 0 64.512-18.432 64.512-56.32 0-39.936-21.504-58.368-64.512-58.368z"  horiz-adv-x="1024" />

    
    <glyph glyph-name="pigai" unicode="&#59017;" d="M827.733333 196.266667a25.6 25.6 0 0 0 51.2 0v-153.6c0-37.704533-30.562133-68.266667-68.266666-68.266667H213.333333c-37.704533 0-68.266667 30.562133-68.266666 68.266667V725.333333c0 37.704533 30.562133 68.266667 68.266666 68.266667h597.333334c37.704533 0 68.266667-30.562133 68.266666-68.266667v-375.466666a25.6 25.6 0 0 0-51.2 0V725.333333a17.066667 17.066667 0 0 1-17.066666 17.066667H213.333333a17.066667 17.066667 0 0 1-17.066666-17.066667v-682.666666a17.066667 17.066667 0 0 1 17.066666-17.066667h597.333334a17.066667 17.066667 0 0 1 17.066666 17.066667v153.6z m-355.421866 41.527466l-108.608 108.612267a25.6 25.6 0 1 0 36.202666 36.202667l90.5088-90.5088 187.050667 187.050666a25.6 25.6 0 1 0 36.206933-36.202666l-205.154133-205.154134a25.6 25.6 0 0 0-36.206933 0z"  horiz-adv-x="1024" />

    
    <glyph glyph-name="xml" unicode="&#59576;" d="M145.6 896C100.8 896 64 860.8 64 816v-862.4C64-91.2 100.8-128 145.6-128h732.8c44.8 0 81.6 36.8 81.6 81.6V571.2L657.6 896h-512zM960 569.6v-16H755.2s-100.8 20.8-99.2 108.8c0 0 4.8-92.8 97.6-92.8H960zM657.6 896v-233.6c0-25.6 17.6-92.8 97.6-92.8H960L657.6 896zM374.4 35.2c-3.2 0-6.4 0-9.6 3.2l-59.2 80-59.2-80c-3.2-3.2-6.4-3.2-9.6-3.2-6.4 0-11.2 4.8-11.2 11.2 0 1.6 0 4.8 1.6 6.4l62.4 81.6-57.6 78.4c-1.6 1.6-1.6 3.2-1.6 6.4 0 4.8 4.8 11.2 11.2 11.2 3.2 0 6.4-1.6 9.6-4.8l54.4-73.6 54.4 73.6c3.2 3.2 6.4 4.8 9.6 4.8 6.4 0 11.2-4.8 11.2-11.2 0-3.2 0-4.8-1.6-6.4l-57.6-76.8 62.4-83.2c1.6-1.6 1.6-4.8 1.6-6.4 0-6.4-4.8-11.2-11.2-11.2z m230.4 0c-6.4 0-11.2 4.8-11.2 11.2v148.8l-64-156.8c-1.6-1.6-3.2-3.2-6.4-3.2s-4.8 1.6-6.4 3.2l-64 156.8v-148.8c0-6.4-4.8-11.2-11.2-11.2-8 0-12.8 4.8-12.8 11.2V211.2c0 9.6 9.6 19.2 20.8 19.2 8 0 16-4.8 19.2-12.8l54.4-134.4 54.4 134.4c3.2 8 11.2 12.8 19.2 12.8 11.2 0 20.8-9.6 20.8-19.2v-164.8c0-6.4-4.8-11.2-12.8-11.2z m169.6 1.6h-88c-9.6 0-17.6 8-17.6 17.6V219.2c0 6.4 6.4 11.2 12.8 11.2s11.2-4.8 11.2-11.2v-161.6h81.6c4.8 0 9.6-4.8 9.6-9.6 0-6.4-4.8-11.2-9.6-11.2z"  horiz-adv-x="1024" />

    
    <glyph glyph-name="txt" unicode="&#58893;" d="M147.2 896C102.4 896 65.6 860.8 65.6 816v-862.4c0-44.8 35.2-81.6 81.6-81.6h731.2c44.8 0 81.6 36.8 81.6 81.6V571.2L657.6 896H147.2zM960 571.2v-16H755.2s-100.8 19.2-97.6 107.2c0 0 3.2-91.2 96-91.2H960zM657.6 896v-232c0-27.2 17.6-92.8 97.6-92.8H960L657.6 896zM364.8 208h-52.8v-161.6c0-6.4-4.8-11.2-12.8-11.2-6.4 0-11.2 4.8-11.2 11.2V208h-52.8c-4.8 0-9.6 3.2-9.6 9.6 0 6.4 4.8 11.2 9.6 11.2h129.6c4.8 0 9.6-4.8 9.6-11.2 0-6.4-4.8-9.6-9.6-9.6z m187.2-172.8c-4.8 0-8 0-9.6 3.2l-59.2 80-60.8-80c-1.6-3.2-4.8-3.2-8-3.2-6.4 0-11.2 4.8-11.2 11.2 0 1.6 0 4.8 1.6 6.4l62.4 81.6-57.6 78.4c-1.6 1.6-1.6 3.2-1.6 6.4 0 4.8 3.2 11.2 11.2 11.2 3.2 0 6.4-1.6 9.6-4.8l54.4-73.6 54.4 73.6c3.2 3.2 6.4 4.8 9.6 4.8 6.4 0 11.2-4.8 11.2-11.2 0-3.2 0-4.8-1.6-6.4l-57.6-76.8 62.4-83.2c0-1.6 1.6-4.8 1.6-6.4 0-6.4-4.8-11.2-11.2-11.2zM731.2 208h-52.8v-161.6c0-6.4-4.8-11.2-12.8-11.2-6.4 0-11.2 4.8-11.2 11.2V208h-52.8c-4.8 0-9.6 3.2-9.6 9.6 0 6.4 4.8 11.2 9.6 11.2h129.6c4.8 0 9.6-4.8 9.6-11.2 0-6.4-4.8-9.6-9.6-9.6z"  horiz-adv-x="1024" />

    
    <glyph glyph-name="yasuobao" unicode="&#58906;" d="M97.9 520h828.4v-269.2H97.9zM926.3 520V734.5c0 26.6-23.8 50.3-52.1 50.3H149.9c-28.3 0-52.1-23.7-52.1-50.3V520h828.5z m0 0M97.9 250.8v-214.5c0-26.6 23.6-50.3 51.7-50.3h725c28.1 0 51.7 23.7 51.7 50.3V250.8H97.9z m0 0M421.8 784.8h184.9V-14H421.8zM606.7 438.6v-112.4H413V438.6h193.7m31.1 45.9H381.9c-4.4 0-11.8-4.4-11.8-11.8v-179c0-4.4 4.4-11.8 11.8-11.8h255.9c4.4 0 11.8 4.4 11.8 11.8v179c-2.9 8.8-7.4 11.8-11.8 11.8z m0 0"  horiz-adv-x="1024" />

    
    <glyph glyph-name="daochu1" unicode="&#58937;" d="M469.333333 213.333333V853.333333c0 23.466667 19.2 42.666667 42.666667 42.666667s42.666667-19.2 42.666667-42.666667v-640c0-23.466667-19.2-42.666667-42.666667-42.666666s-42.666667 19.2-42.666667 42.666666M226.210133 627.9424L481.826133 883.566933a42.7776 42.7776 0 0 0 60.330667 0c16.597333-16.597333 16.597333-43.776 0-60.330666L286.5408 567.611733a42.7776 42.7776 0 0 0-60.330667 0 42.7776 42.7776 0 0 0 0 60.330667M542.0544 883.5584l255.616-255.616a42.7776 42.7776 0 0 0 0-60.330667c-16.597333-16.605867-43.776-16.605867-60.330667 0L481.723733 823.210667a42.7776 42.7776 0 0 0 0 60.330666 42.7776 42.7776 0 0 0 60.330667 0M896-128H128c-70.570667 0-128 57.429333-128 128V256c0 23.594667 19.072 42.666667 42.666667 42.666667s42.666667-19.072 42.666666-42.666667v-256c0-23.552 19.114667-42.666667 42.666667-42.666667h768c23.552 0 42.666667 19.114667 42.666667 42.666667V256c0 23.594667 19.072 42.666667 42.666666 42.666667s42.666667-19.072 42.666667-42.666667v-256c0-70.570667-57.429333-128-128-128"  horiz-adv-x="1024" />

    
    <glyph glyph-name="tishi" unicode="&#58967;" d="M512-128c-281.6 0-512 230.4-512 512s230.4 512 512 512 512-230.4 512-512S793.6-128 512-128zM512 832C262.4 832 64 633.6 64 384s198.4-448 448-448 448 198.4 448 448S761.6 832 512 832zM614.4 582.4c25.6-25.6 38.4-51.2 38.4-89.6 0-32-6.4-57.6-25.6-76.8C627.2 403.2 608 390.4 576 364.8 563.2 352 556.8 339.2 550.4 332.8c0-6.4-6.4-12.8-6.4-25.6 0-19.2-19.2-32-32-32l0 0c-19.2 0-38.4 19.2-32 38.4 0 12.8 6.4 25.6 6.4 32 6.4 19.2 32 44.8 70.4 76.8l12.8 12.8c12.8 12.8 19.2 32 19.2 44.8 0 19.2-6.4 38.4-19.2 51.2C556.8 550.4 537.6 556.8 512 556.8c-32 0-51.2-6.4-64-25.6C441.6 524.8 435.2 512 435.2 492.8c0-19.2-19.2-32-32-32l0 0c-19.2 0-38.4 19.2-32 44.8C377.6 537.6 390.4 556.8 403.2 576c25.6 25.6 64 38.4 108.8 38.4C556.8 614.4 595.2 608 614.4 582.4zM537.6 230.4c6.4-6.4 12.8-19.2 12.8-32 0-12.8-6.4-25.6-12.8-32-12.8-6.4-19.2-12.8-32-12.8-12.8 0-25.6 6.4-32 12.8-6.4 6.4-12.8 19.2-12.8 32 0 12.8 6.4 25.6 12.8 32 6.4 6.4 19.2 12.8 32 12.8C518.4 243.2 531.2 236.8 537.6 230.4z"  horiz-adv-x="1024" />

    
    <glyph glyph-name="tongji" unicode="&#58935;" d="M331.840623 102.515245 331.840623 508.549022c0 16.191531-12.457456 28.645338-27.399836 28.645338L222.235197 537.19436c-14.94238 0-27.399836-13.698094-27.399836-28.645338L194.835361 102.515245 331.840623 102.515245 331.840623 102.515245zM506.210956 102.515245 506.210956 682.918139c0 16.192747-12.453808 29.89449-27.401052 29.89449l-82.20559 0c-14.94238 0-27.399836-13.701743-27.399836-29.89449L369.204478 102.515245 506.210956 102.515245 506.210956 102.515245zM680.580073 102.515245 680.580073 359.089952c0 16.191531-12.452591 29.889625-27.399836 29.889625L570.979512 388.979577c-14.947245 0-27.405918-13.698094-27.405918-29.889625L543.573595 102.515245 680.580073 102.515245 680.580073 102.515245zM854.94919 102.515245 854.94919 508.549022c0 16.191531-12.452591 28.645338-27.399836 28.645338l-82.200725 0c-14.947245 0-27.399836-13.698094-27.399836-28.645338L717.948794 102.515245 854.94919 102.515245 854.94919 102.515245zM879.860454 65.15139"  horiz-adv-x="1024" />

    
    <glyph glyph-name="xiazai1" unicode="&#58938;" d="M128 89.6l768 0 0-89.6-768 0 0 89.6ZM732.288 368l-176.4992-186.1376c-10.9504-11.2064-26.4128-18.4896-43.7888-18.4896s-32.832 7.2832-43.6032 18.6048L291.5264 367.8656c-9.2288 10.0224-15.1104 22.9696-15.1104 37.3248 0 30.816 26.3808 55.8016 58.8992 55.8016 0.4544 0 0.896-0.0576 1.344-0.0704l0 0.352 116.4352 0L453.0944 598.0608c0 30.8352 26.3872 55.8208 58.8992 55.8208 32.5312 0 58.9056-24.9792 58.9056-55.8208l0-136.7872 114.2848 0 0-0.448c1.1648 0.064 2.3104 0.1792 3.5008 0.1792 32.5248 0 58.8992-24.992 58.8992-55.8144C747.5904 390.8352 741.7024 377.8944 732.288 368zM416 768l192 0 0-324.8-192 0 0 324.8Z"  horiz-adv-x="1024" />

    
    <glyph glyph-name="xinjian" unicode="&#58925;" d="M853.333333 640H298.666667c-23.466667 0-42.666667-19.2-42.666667-42.666667v-554.666666c0-23.466667 19.2-42.666667 42.666667-42.666667h554.666666c23.466667 0 42.666667 19.2 42.666667 42.666667V597.333333c0 23.466667-19.2 42.666667-42.666667 42.666667z m-106.666666-362.666667h-128v-128h-85.333334v128h-128v85.333334h128v128h85.333334v-128h128v-85.333334zM170.666667 725.333333h512v-42.666666h42.666666V725.333333c0 23.466667-19.2 42.666667-42.666666 42.666667H170.666667c-23.466667 0-42.666667-19.2-42.666667-42.666667v-512c0-23.466667 19.2-42.666667 42.666667-42.666666h42.666666v42.666666H170.666667V725.333333z"  horiz-adv-x="1024" />

    
    <glyph glyph-name="piliangtianjia" unicode="&#59007;" d="M669.538462 305.230769h-98.461539a19.692308 19.692308 0 0 1 0-39.384615H669.538462v-98.461539a19.692308 19.692308 0 1 1 39.384615 0V265.846154h98.461538a19.692308 19.692308 0 1 1 0 39.384615H708.923077v98.461539a19.692308 19.692308 0 1 1-39.384615 0V305.230769zM261.356308 580.923077C247.532308 580.923077 236.307692 589.745231 236.307692 600.615385s11.224615 19.692308 25.048616 19.692307h501.287384c13.824 0 25.048615-8.822154 25.048616-19.692307s-11.224615-19.692308-25.048616-19.692308H261.356308zM256 423.384615h275.692308a19.692308 19.692308 0 0 0 0-39.384615h-275.692308a19.692308 19.692308 0 0 0 0 39.384615z m0-236.307692h275.692308a19.692308 19.692308 0 1 0 0-39.384615h-275.692308a19.692308 19.692308 0 1 0 0 39.384615z"  horiz-adv-x="1024" />

    
    <glyph glyph-name="zuoyezhongxin" unicode="&#59014;" d="M752.941176 799.623529v-60.235294h144.564706c17.588706 0 36.141176-21.805176 36.141177-53.127529V44.875294c0-31.322353-18.552471-53.187765-36.141177-53.187765H126.494118c-17.588706 0-36.141176 21.865412-36.141177 53.187765V686.260706c0 31.322353 18.552471 53.127529 36.141177 53.127529H271.058824v60.235294H126.494118C73.246118 799.623529 30.117647 748.845176 30.117647 686.260706V44.875294c0-62.644706 43.128471-113.423059 96.376471-113.423059h771.011764c53.248 0 96.376471 50.778353 96.376471 113.423059V686.260706c0 62.644706-43.128471 113.362824-96.376471 113.362823H752.941176z m0 0v-60.235294h144.564706c17.588706 0 36.141176-21.805176 36.141177-53.127529V44.875294c0-31.322353-18.552471-53.187765-36.141177-53.187765H126.494118c-17.588706 0-36.141176 21.865412-36.141177 53.187765V686.260706c0 31.322353 18.552471 53.127529 36.141177 53.127529H271.058824v60.235294H126.494118C73.246118 799.623529 30.117647 748.845176 30.117647 686.260706V44.875294c0-62.644706 43.128471-113.423059 96.376471-113.423059h771.011764c53.248 0 96.376471 50.778353 96.376471 113.423059V686.260706c0 62.644706-43.128471 113.362824-96.376471 113.362823H752.941176zM331.294118 835.764706a60.235294 60.235294 0 1 1 0-120.470588h361.411764a60.235294 60.235294 0 0 1 0 120.470588H331.294118z m0 60.235294h361.411764a120.470588 120.470588 0 1 0 0-240.941176H331.294118a120.470588 120.470588 0 1 0 0 240.941176zM271.058824 474.352941a30.117647 30.117647 0 0 0 0 60.235294h481.882352a30.117647 30.117647 0 1 0 0-60.235294H271.058824zM271.058824 293.647059a30.117647 30.117647 0 0 0 0 60.235294h481.882352a30.117647 30.117647 0 1 0 0-60.235294H271.058824zM271.058824 112.941176a30.117647 30.117647 0 1 0 0 60.235295h481.882352a30.117647 30.117647 0 1 0 0-60.235295H271.058824z"  horiz-adv-x="1024" />

    
    <glyph glyph-name="PDF" unicode="&#59075;" d="M910.2336-128H113.7664C51.2-128 0-76.8 0-14.2336V782.2336C0 844.8 51.2 896 113.7664 896h796.4672C972.8 896 1024 844.8 1024 782.2336v-796.4672C1024-76.8 972.8-128 910.2336-128zM155.2128 340.5568h44.672c35.9936-1.2032 66.0224 8.704 89.984 29.6704 24.0128 20.9664 36.0192 48.3328 36.0192 82.1248 0 33.28-10.24 58.9568-30.7712 76.8768-20.5312 17.92-49.3568 26.88-86.5536 26.88h-97.792v-344.2432h44.4416v128.6912z m0 176.4352h45.3376c52.48 0 78.6688-22.1184 78.6688-66.432 0-22.8096-7.04-40.3456-21.12-52.5824-14.08-12.1856-34.6624-18.304-61.7728-18.304H155.2128v137.3184z m234.0352-305.1008h94.6432c54.528 0 99.072 16.0768 133.6576 48.2048 34.6112 32.1536 51.8912 74.9056 51.8912 128.256 0 51.0976-17.28 91.8528-51.8912 122.2144-34.56 30.336-77.952 45.568-130.0992 45.568h-98.2016v-344.2432z m44.416 304.6656h51.9936c41.0624 0 74.1632-10.8032 99.328-32.4608 25.216-21.6064 37.7856-53.888 37.7856-96.8704 0-43.008-12.2368-76.3392-36.7872-100.224-24.5248-23.8592-58.624-35.7632-102.3232-35.7632H433.664V516.5568z m479.5648 0v39.5776h-177.3312v-344.2432h44.4416v150.4512h123.1104V401.408h-123.136v115.1232h132.9152z"  horiz-adv-x="1024" />

    
    <glyph glyph-name="WORD" unicode="&#58944;" d="M535.119473 896h69.599248v-95.247413C729.226717 799.668862 853.614299 802.07714 977.881468 799.668862a40.459078 40.459078 0 0 0 44.914393-45.516463c2.047037-234.566322 0-469.614299 1.204139-703.819379-1.204139-24.082785 2.287865-50.694262-11.318909-72.248354-16.978363-12.041392-38.893697-10.837253-58.761994-12.041392h-349.200376V-127.518344h-72.248354C354.980245-94.886171 177.490122-64.541863 0-32.752587V800.511759C178.33302 832.421449 356.786453 863.488241 535.119473 896zM604.718721 764.989652H988.598307v-761.979304H604.718721v95.247413h302.479774v48.165569H604.718721v59.002822h302.479774v48.16557H604.718721v59.002822h302.479774v48.165569H604.718721v60.206961h302.479774V467.326435H604.718721v60.206961h302.479774v46.96143H604.718721v59.604892h302.479774V681.663217H604.718721zM240.827846 554.626529c22.156162 1.324553 44.19191 2.287865 66.348071 3.492003 15.533396-80.4365 31.30762-160.632173 48.165569-240.827845 13.125118 82.724365 27.695202 165.087488 41.783632 247.571025 23.239887 0.842897 46.479774 2.167451 69.719661 3.612418-26.370649-115.356538-49.369708-231.796802-78.148636-346.430856-19.386642-10.355597-48.165569 0-71.52587-1.204139C301.034807 299.830668 283.093133 378.220132 269.245532 457.332079c-13.606773-76.944497-31.30762-153.16651-46.841016-229.508937-22.39699 1.204139-44.793979 2.528692-67.311383 4.094073-19.266228 104.760113-42.024459 208.918156-60.206962 313.919097 19.868297 0.963311 39.857008 1.806209 60.206962 2.528693 12.041392-75.860771 25.648166-151.360301 36.124177-227.341487 16.135466 77.907808 32.873001 155.695202 49.610536 233.603011z"  horiz-adv-x="1024" />

    
    <glyph glyph-name="PDF1" unicode="&#58949;" d="M535.198324 896h69.53853v-95.276816c124.175945-0.677323 248.351891 1.354647 373.205159-0.677324a40.6394 40.6394 0 0 0 45.154889-45.154889c1.919083-234.579649 0-469.272186 1.128872-703.851835-1.128872-24.044979 2.257744-50.686363-11.288722-72.022049-17.045971-12.417595-38.946092-11.288722-58.814243-11.288722H604.962628v-95.276816h-72.925146C354.917429-94.924044 177.458715-64.557381 0-32.723184V800.497409C178.361812 832.444493 356.836512 863.48848 535.198324 896zM604.736854 765.050821h383.816558v-762.101642h-383.816558v95.276816h302.42487v47.638408H604.736854v59.491567h302.42487V252.542829H604.736854v60.056002h302.42487v47.638409H604.736854v59.491566h302.42487V467.028553H604.736854v59.830228h302.42487v47.638408H604.736854V634.101643h302.42487v-597.17341H604.736854zM645.489141 366.33315h302.424871v-47.638409H645.489141zM645.489141 284.489913h302.424871v-47.638408H645.489141zM645.489141 202.646676h302.424871v-47.638408H645.489141zM596.383199 120.80344h351.530813v-47.638409H596.383199zM180.619557 578.674016c59.265792-2.822181 130.949179 24.044979 180.619557-21.335685 46.961085-58.475582 34.54349-165.831331-35.107927-200.713483-24.722302-12.982031-53.169882-11.288722-80.037041-10.272737v-130.949179L180.619557 220.934406c-0.903098 119.208908-1.128872 238.530702 0 357.73961zM245.642597 518.279352c21.448572 1.015985 48.089957 5.079925 62.539522-15.578437a82.407673 82.407673 0 0 0 1.467534-73.263808c-12.417595-22.577445-40.526513-20.771249-62.313747-23.367655-2.257744 37.365671-2.03197 74.731342-1.693309 112.2099zM885.713152 516.134495a83.988094 83.988094 0 0 0-48.315732 19.642376 460.57987 460.57987 0 0 1-77.666409-24.835189c-20.3197-36.011024-39.171866-54.411641-55.540514-54.411641a17.384632 17.384632 0 0 0-9.821188 2.596406 19.416602 19.416602 0 0 0-11.288723 17.723294c0 5.870136 1.354647 22.577445 63.329733 49.105942a467.917539 467.917539 0 0 1 34.656377 81.278801c-7.902106 15.691324-24.835189 54.298754-13.094918 73.941131a20.658362 20.658362 0 0 0 20.206813 10.498511 21.900121 21.900121 0 0 0 17.045971-8.466541c8.466542-11.288722 7.789218-36.688347-3.27373-73.376695A196.988204 196.988204 0 0 1 842.70312 557.338331a221.14607 221.14607 0 0 0 41.090949 4.515489c30.705325-0.677323 35.333701-15.014001 34.656377-23.59343 0-22.577445-21.56146-22.577445-32.624407-22.577444z m-185.022159-42.106935l2.257745 0.564436a45.154889 45.154889 0 0 1 23.932091 16.820197 56.443612 56.443612 0 0 1-26.189836-17.384633z m93.357734 200.261934h-2.144858a4.402602 4.402602 0 0 1-2.82218-0.677323 52.492559 52.492559 0 0 1 4.176827-33.866167 53.282769 53.282769 0 0 1 0.790211 34.54349zM790.210561 578.448242v-1.24176l-0.677323 0.677324c-5.418587-14.336677-11.288722-28.44758-18.061956-42.332709l1.128872 0.677323V534.760886A346.338 346.338 0 0 0 812.788006 547.404255l-0.677324 0.564436h1.806196a196.310881 196.310881 0 0 0-23.706317 30.479551z m94.599493-34.769265a66.151913 66.151913 0 0 1-18.174843-1.693308 50.686363 50.686363 0 0 1 20.997024-6.660347 26.076949 26.076949 0 0 1 13.885128 1.580422c-0.451549 2.596406-3.273729 6.773233-17.158858 6.773233z"  horiz-adv-x="1024" />

    
    <glyph glyph-name="wulumuqishigongandashujuguanlipingtai-ico-" unicode="&#59380;" d="M822.4 560.64H533.12L495.36 640a36.48 36.48 0 0 1-33.28 21.12H181.76a36.48 36.48 0 0 1-36.48-36.48v-519.68a56.96 56.96 0 0 1 56.96-56.96h620.8a56.96 56.96 0 0 1 56.96 56.96V503.68a56.96 56.96 0 0 1-57.6 56.96zM512 192L378.88 359.03999999999996h81.28V433.92h103.68v-74.88h80.64z"  horiz-adv-x="1024" />

    
    <glyph glyph-name="renshu" unicode="&#58897;" d="M406.6 565.5m-176.6 0a176.6 176.6 0 1 1 353.2 0 176.6 176.6 0 1 1-353.2 0ZM491.2 378.9H352.4C191.7 378.9 61.5 248.70000000000005 61.5 88c0-48.5 39.4-87.9 87.9-87.9h528.2c38.1 0 69 30.9 69 69v54.4c0 141-114.4 255.4-255.4 255.4zM605.8 566.9c0-46.7-17-89.4-45.2-122.3-3.3-3.8-3.1-9.5 0.4-13.2 24.4-25.3 58.7-41 96.6-41 74.6 0 135 60.7 134.5 135.4-0.5 73-59.9 132.7-132.9 133.5-20.6 0.2-40.1-4.1-57.6-12.2-6.2-2.9-9.3-10-7-16.4 7.3-19.8 11.2-41.3 11.2-63.8zM681.8 368.5H643c-7.9 0-10.8-10.4-4-14.5 77.3-45.9 129.1-130.2 129.1-226.7v-56.1c0-15.1-4.7-29.1-12.8-40.7-3.6-5.1 0-12.2 6.3-12.2H854c35.2 0 63.8 28.6 63.8 63.8v50.2c0 130.5-105.7 236.2-236 236.2z"  horiz-adv-x="1024" />

    
    <glyph glyph-name="daochu" unicode="&#58936;" d="M469.333333 725.333333m42.666667 0l0 0q42.666667 0 42.666667-42.666666l0-426.666667q0-42.666667-42.666667-42.666667l0 0q-42.666667 0-42.666667 42.666667l0 426.666667q0 42.666667 42.666667 42.666666ZM810.666667 554.666667h-85.333334v-85.333334h85.333334v-341.333333H213.333333v341.333333h85.333334V554.666667H213.333333a85.333333 85.333333 0 0 1-85.333333-85.333334v-341.333333a85.333333 85.333333 0 0 1 85.333333-85.333333h597.333334a85.333333 85.333333 0 0 1 85.333333 85.333333v341.333333a85.333333 85.333333 0 0 1-85.333333 85.333334zM488.106667 786.773333L356.693333 655.36A34.133333 34.133333 0 0 1 381.013333 597.333333h261.973334a34.133333 34.133333 0 0 1 24.32 58.026667l-131.413334 131.413333a33.706667 33.706667 0 0 1-47.786666 0z"  horiz-adv-x="1024" />

    
    <glyph glyph-name="add_file" unicode="&#58979;" d="M70.570342 719.573496h542.47341c-15.667589 60.875437-70.92725 105.856162-136.694267 105.856162H105.854864c-19.487148 0-35.284522-15.797374-35.284522-35.28582v-70.569045z m614.563529 0h338.13674c58.461445 0 105.854864-47.392122 105.854864-105.854865v-635.13308c0-58.462743-47.39342-105.856162-105.856162-105.856162H105.856162C47.39342-127.270611 0-79.875894 0-21.414449V790.145136C0 848.60658 47.39342 896 105.856162 896H476.348188c104.903544 0 191.985075-76.296436 208.784385-176.426504z m2.926641-70.570343H70.570342v-670.417602c0-19.487148 15.797374-35.28582 35.28582-35.28582h917.414449c19.487148 0 35.284522 15.798672 35.284522 35.28582V613.718631c0 19.487148-15.797374 35.28582-35.28582 35.28582h-335.207503zM529.278215 331.437262V505.268076a2.595691 2.595691 0 0 0 2.595691 2.595691h65.378961a2.595691 2.595691 0 0 0 2.595691-2.595691V331.437262h173.829516a2.595691 2.595691 0 0 0 2.59569-2.59569v-65.378961a2.595691 2.595691 0 0 0-2.59569-2.595691H599.84726v-173.830814a2.595691 2.595691 0 0 0-2.595691-2.59569h-65.378961a2.595691 2.595691 0 0 0-2.59569 2.59569V260.86692H355.447402a2.595691 2.595691 0 0 0-2.595691 2.595691V328.841572a2.595691 2.595691 0 0 0 2.595691 2.59569h173.830813z"  horiz-adv-x="1129" />

    
    <glyph glyph-name="xiugai" unicode="&#58930;" d="M105.164714 18.299428h813.670572a73.149714 73.149714 0 0 0 0-146.267429H105.164714a73.149714 73.149714 0 1 0 0 146.267429zM504.608231 795.427143c1.151964-1.27996 1.791944-2.495922 3.039905-3.807881 25.119215-27.83913 60.030124-65.885941 102.812787-112.700478 36.79885-39.35877 72.797725-78.557545 100.956845-108.380613L310.694291 155.223149l-25.663198-25.343208a141.371582 141.371582 0 0 0-99.772882-41.182713H70.797788c-21.343333 0-38.526796 17.663448-38.526796 39.902753v116.47636a153.27521 153.27521 0 0 0 45.246586 108.924596l21.471329 21.43933L504.608231 795.459142z m61.150089 62.07806A121.084216 121.084216 0 0 0 653.243586 895.104028c32.95897 0 64.509984-13.535577 87.485266-37.534827l36.766851-38.07881c48.382488-50.046436 48.382488-131.131902 0-181.050342l-4.287866-5.11984a19602.267429 19602.267429 0 0 0-207.449517 224.216993z"  horiz-adv-x="1024" />

    
    <glyph glyph-name="tongji1" unicode="&#58888;" d="M1024.25175 896l-209.92-23.04L883.45175 803.84 655.61175 525.312 419.06775 743.936c-15.872 14.848-40.96 14.848-57.344 0.512L14.07575 430.592C-3.33225 414.72-4.86825 387.584 11.00375 370.176c8.192-9.216 19.968-13.824 31.744-13.824 10.24 0 20.48 3.584 28.672 10.752l318.464 287.744 241.152-222.72c8.704-8.192 20.48-11.776 31.744-11.264 11.776 1.024 22.528 6.656 30.208 15.36l250.88 306.688 57.344-57.344L1024.25175 896z m0 0M133.37175-128H30.97175c-16.896 0-30.72 13.824-30.72 30.72v348.16c0 16.896 13.824 30.72 30.72 30.72h102.4c16.896 0 30.72-13.824 30.72-30.72v-348.16c0-16.896-13.824-30.72-30.72-30.72zM420.09175-128H317.69175c-16.896 0-30.72 13.824-30.72 30.72V455.68c0 16.896 13.824 30.72 30.72 30.72h102.4c16.896 0 30.72-13.824 30.72-30.72v-552.96c0-16.896-13.824-30.72-30.72-30.72zM706.81175-128h-102.4c-16.896 0-30.72 13.824-30.72 30.72v399.36c0 16.896 13.824 30.72 30.72 30.72h102.4c16.896 0 30.72-13.824 30.72-30.72v-399.36c0-16.896-13.824-30.72-30.72-30.72zM993.53175-128h-102.4c-16.896 0-30.72 13.824-30.72 30.72V558.08c0 16.896 13.824 30.72 30.72 30.72h102.4c16.896 0 30.72-13.824 30.72-30.72v-655.36c0-16.896-13.824-30.72-30.72-30.72z"  horiz-adv-x="1024" />

    
    <glyph glyph-name="tupian" unicode="&#58991;" d="M977.454545 896a139.636364 139.636364 0 0 0 139.636364-139.636364v-744.727272a139.636364 139.636364 0 0 0-139.636364-139.636364H139.636364a139.636364 139.636364 0 0 0-139.636364 139.636364V756.363636a139.636364 139.636364 0 0 0 139.636364 139.636364zM321.163636 400.151273L93.090909 134.09745499999997V11.636363999999958a46.545455 46.545455 0 0 1 41.099636-46.219637L139.636364-34.90909099999999h837.818181a46.312727 46.312727 0 0 1 23.319273 6.237091 42.914909 42.914909 0 0 0-8.052363 5.818182l-4.049455 4.189091-196.189091 236.637091-151.04-188.881455a46.545455 46.545455 0 0 0-71.586909-1.396364l-3.490909 4.654546L321.163636 400.151273zM977.454545 802.909091H139.636364a46.545455 46.545455 0 0 1-46.545455-46.545455v-479.232l197.352727 230.260364a46.545455 46.545455 0 0 0 70.656 0.046545l3.444364-4.514909 243.944727-365.940363 146.432 183.016727a46.545455 46.545455 0 0 0 67.677091 5.306182l4.002909-4.096L1024 84.34036400000002V756.363636a46.545455 46.545455 0 0 1-41.099636 46.219637L977.454545 802.909091z m-186.181818-139.636364a93.090909 93.090909 0 1 0 0-186.181818 93.090909 93.090909 0 0 0 0 186.181818z"  horiz-adv-x="1117" />

    
    <glyph glyph-name="PDF2" unicode="&#59986;" d="M535.198324 896h69.53853v-95.276816c124.175945-0.677323 248.351891 1.354647 373.205159-0.677324a40.6394 40.6394 0 0 0 45.154889-45.154889c1.919083-234.579649 0-469.272186 1.128872-703.851835-1.128872-24.044979 2.257744-50.686363-11.288722-72.022049-17.045971-12.417595-38.946092-11.288722-58.814243-11.288722H604.962628v-95.276816h-72.925146C354.917429-94.92404399999998 177.458715-64.55738099999996 0-32.72318399999995V800.4974090000001C178.361812 832.444493 356.836512 863.48848 535.198324 896zM604.736854 765.050821h383.816558v-762.101642h-383.816558v95.276816h302.42487v47.638408H604.736854v59.491567h302.42487V252.54282899999998H604.736854v60.056002h302.42487v47.638409H604.736854v59.491566h302.42487V467.028553H604.736854v59.830228h302.42487v47.638408H604.736854V634.101643h302.42487v-597.17341H604.736854zM645.489141 366.33315000000005h302.424871v-47.638409H645.489141zM645.489141 284.489913h302.424871v-47.638408H645.489141zM645.489141 202.64667599999996h302.424871v-47.638408H645.489141zM596.383199 120.80344000000002h351.530813v-47.638409H596.383199zM180.619557 578.6740159999999c59.265792-2.822181 130.949179 24.044979 180.619557-21.335685 46.961085-58.475582 34.54349-165.831331-35.107927-200.713483-24.722302-12.982031-53.169882-11.288722-80.037041-10.272737v-130.949179L180.619557 220.93440599999997c-0.903098 119.208908-1.128872 238.530702 0 357.73961zM245.642597 518.279352c21.448572 1.015985 48.089957 5.079925 62.539522-15.578437a82.407673 82.407673 0 0 0 1.467534-73.263808c-12.417595-22.577445-40.526513-20.771249-62.313747-23.367655-2.257744 37.365671-2.03197 74.731342-1.693309 112.2099zM885.713152 516.134495a83.988094 83.988094 0 0 0-48.315732 19.642376 460.57987 460.57987 0 0 1-77.666409-24.835189c-20.3197-36.011024-39.171866-54.411641-55.540514-54.411641a17.384632 17.384632 0 0 0-9.821188 2.596406 19.416602 19.416602 0 0 0-11.288723 17.723294c0 5.870136 1.354647 22.577445 63.329733 49.105942a467.917539 467.917539 0 0 1 34.656377 81.278801c-7.902106 15.691324-24.835189 54.298754-13.094918 73.941131a20.658362 20.658362 0 0 0 20.206813 10.498511 21.900121 21.900121 0 0 0 17.045971-8.466541c8.466542-11.288722 7.789218-36.688347-3.27373-73.376695A196.988204 196.988204 0 0 1 842.70312 557.3383309999999a221.14607 221.14607 0 0 0 41.090949 4.515489c30.705325-0.677323 35.333701-15.014001 34.656377-23.59343 0-22.577445-21.56146-22.577445-32.624407-22.577444z m-185.022159-42.106935l2.257745 0.564436a45.154889 45.154889 0 0 1 23.932091 16.820197 56.443612 56.443612 0 0 1-26.189836-17.384633z m93.357734 200.261934h-2.144858a4.402602 4.402602 0 0 1-2.82218-0.677323 52.492559 52.492559 0 0 1 4.176827-33.866167 53.282769 53.282769 0 0 1 0.790211 34.54349zM790.210561 578.4482419999999v-1.24176l-0.677323 0.677324c-5.418587-14.336677-11.288722-28.44758-18.061956-42.332709l1.128872 0.677323V534.760886A346.338 346.338 0 0 0 812.788006 547.4042549999999l-0.677324 0.564436h1.806196a196.310881 196.310881 0 0 0-23.706317 30.479551z m94.599493-34.769265a66.151913 66.151913 0 0 1-18.174843-1.693308 50.686363 50.686363 0 0 1 20.997024-6.660347 26.076949 26.076949 0 0 1 13.885128 1.580422c-0.451549 2.596406-3.273729 6.773233-17.158858 6.773233z"  horiz-adv-x="1024" />

    
    <glyph glyph-name="jiedianhuiyuanfenzu" unicode="&#59134;" d="M494.043838 219.850755c76.612957 44.890404 128.087287 128.087287 128.087287 223.3547 0 142.851242-115.817243 258.768242-258.768242 258.768242S104.694398 586.156454 104.694398 443.205455c0-95.267414 51.47433-178.464296 128.087287-223.3547C98.409742 176.157428 1.246956 49.865757 1.246956-99.070628l0-28.929372 724.431369 0 0 28.929372C725.678324 49.865757 628.515538 176.157428 494.043838 219.850755zM791.118558 350.032927c76.612957 44.890404 128.087287 128.087287 128.087287 223.3547 0 142.851242-115.817243 258.768242-258.768242 258.768242-75.615392 0-143.74905-32.520604-191.033609-84.194447 6.583926-2.294398 13.068095-4.78831 19.552265-7.481734 38.406235-16.260302 72.921968-39.503556 102.549635-69.131223 29.627667-29.627667 52.870921-64.1434 69.131223-102.549635 16.858841-39.802825 25.338139-82.099562 25.338139-125.593376 0-57.260205-15.262737-113.622601-44.092353-162.802533-9.476863-16.260302-20.350317-31.523039-32.520604-45.788212 5.087579-3.291963 10.075402-6.783439 14.963468-10.374671 33.418412-24.240818 62.74681-53.269946 87.187141-86.488846 24.839357-33.617925 44.092353-70.627569 57.260205-110.031369 2.793181-8.479299 5.386849-16.958597 7.581491-25.537652L1022.753044 2.182172l0 28.929372C1022.753044 180.147686 925.590258 306.339601 791.118558 350.032927z"  horiz-adv-x="1024" />

    
    <glyph glyph-name="shijuanpigai" unicode="&#58899;" d="M610.7-112.10000000000002H200c-86.4 0-156.7 70.3-156.7 156.7V728.3C43.3 814.7 113.6 885 200 885h615.3C901.7 885 972 814.7 972 728.3v-362h-40v362C932 792.6 879.6 845 815.3 845H200c-64.4 0-116.7-52.4-116.7-116.7v-683.6C83.3-19.700000000000045 135.7-72 200-72h410.7v-40.1zM787.8-88.39999999999998c-7.5-8.1-20.2-8.6-28.3-1.1L627.3 32.700000000000045c-8.1 7.5-8.6 20.2-1.1 28.3 7.5 8.1 20.2 8.6 28.3 1.1l132.2-122.2c8.1-7.5 8.6-20.2 1.1-28.3zM968.5 244.29999999999995L805.1-76.5c-5-9.8-17.1-13.7-26.9-8.7-9.8 5-13.7 17.1-8.7 26.9l163.4 320.8c5 9.8 17.1 13.7 26.9 8.7 9.8-5 13.7-17.1 8.7-26.9zM590.4 344H442.6c-11 0-20 9-20 20s9 20 20 20h147.8c11 0 20-9 20-20s-9-20-20-20zM531 537L399.8 244.89999999999998c-4.5-10-16.4-14.6-26.4-10-10 4.5-14.6 16.4-10 26.4l131.2 292.1c4.5 10 16.4 14.6 26.4 10 10-4.5 14.5-16.4 10-26.4zM536.5 559.6l113.7-299.3c3.9-10.3-1.3-21.9-11.6-25.8-10.3-3.9-21.9 1.3-25.8 11.6L499.1 545.3c-3.9 10.3 1.3 21.9 11.6 25.8 10.2 4 21.8-1.3 25.8-11.5z"  horiz-adv-x="1024" />

    
    <glyph glyph-name="xiazai" unicode="&#59985;" d="M634.50624 146.7648a31.52896 31.52896 0 0 1-44.66176 0l-48.8192-48.9216V425.344a31.616 31.616 0 0 1-31.58528 31.65184 31.616 31.616 0 0 1-31.58016-31.65184v-327.5008l-48.80384 48.92672a31.52896 31.52896 0 0 1-44.66176 0 31.70304 31.70304 0 0 1 0-44.75904l102.73792-102.96832a31.52896 31.52896 0 0 1 44.65664 0l102.73792 102.96832a31.70304 31.70304 0 0 1-0.02048 44.75392z m145.4848 404.73088C753.152 679.61856 641.95072 773.12 511.01696 773.12c-130.83136 0-241.97632-93.36832-268.90752-221.33248a174.72 174.72 0 0 1 14.12608-348.83584h171.0848V425.344a82.11456 82.11456 0 1 0 164.23424 0v-222.39232h171.08992a174.72512 174.72512 0 0 1 17.34656 348.544z"  horiz-adv-x="1024" />

    


  </font>
</defs>
</svg>
